<?xml version="1.0" standalone="no"?><!DOCTYPE svg PUBLIC "-//W3C//DTD SVG 1.1//EN" "http://www.w3.org/Graphics/SVG/1.1/DTD/svg11.dtd"><svg t="1587121558985" class="icon" viewBox="0 0 1024 1024" version="1.1" xmlns="http://www.w3.org/2000/svg" p-id="1888" xmlns:xlink="http://www.w3.org/1999/xlink" width="32" height="32"><defs><style type="text/css"></style></defs><path d="M888.68464 440.516946l-25.712615 24.940019c-5.962805 5.762237-13.833053 8.940626-22.179139 8.940626-8.384971 0-16.256242-3.178389-22.177092-8.940626L557.218366 212.026998l0 726.44507c0 10.968819-8.903787 19.911492-19.832697 19.911492l-51.627844 0c-10.968819 0-19.871583-8.942673-19.871583-19.911492L465.886241 211.828476l-261.557064 253.628488c-5.922896 5.762237-13.831007 8.940626-22.177092 8.940626-8.385994 0-16.256242-3.178389-22.177092-8.940626l-25.713638-24.940019c-6.081509-5.882987-9.419534-13.731746-9.419534-22.098297 0-8.385994 3.338025-16.256242 9.419534-22.157649L468.787314 71.888284c0.398066-0.3776 0.795109-0.715291 1.153266-1.013073 3.696182-4.868891 9.459442-7.849782 15.818267-7.849782l51.627844 0c6.477528 0 12.360516 3.099594 16.016789 8.18645 0.277316 0.23843 0.556679 0.475837 0.836041 0.7552l334.445118 324.313364c6.081509 5.881964 9.420557 13.751189 9.420557 22.138206C898.105197 426.7852 894.72624 434.633958 888.68464 440.516946z" p-id="1889" fill="currentColor"></path></svg>