<?xml version="1.0" standalone="no"?><!DOCTYPE svg PUBLIC "-//W3C//DTD SVG 1.1//EN" "http://www.w3.org/Graphics/SVG/1.1/DTD/svg11.dtd"><svg t="1588521277749" class="icon" viewBox="0 0 1024 1024" version="1.1" xmlns="http://www.w3.org/2000/svg" p-id="1900" width="128" height="128" xmlns:xlink="http://www.w3.org/1999/xlink"><defs><style type="text/css"></style></defs><path d="M1023.988 970.686c0 23.436-19.186 42.624-42.654 42.624H42.668C19.2 1013.31 0.012 994.122 0.012 970.686v-768c0-23.468 19.188-42.67 42.656-42.67h938.666c23.468 0 42.654 19.204 42.654 42.67v768z" fill="#AAB2BC" p-id="1901"></path><path d="M1023.988 927.998c0 23.438-19.186 42.688-42.654 42.688H42.668C19.2 970.686 0.012 951.436 0.012 927.998V160.016c0-23.468 19.188-42.67 42.656-42.67h938.666c23.468 0 42.654 19.202 42.654 42.67v767.982z" fill="#CCD1D9" p-id="1902"></path><path d="M1023.988 885.312c0 23.498-19.186 42.686-42.654 42.686H42.668C19.2 927.998 0.012 908.81 0.012 885.312V117.344c0-23.468 19.188-42.656 42.656-42.656h938.666c23.468 0 42.654 19.188 42.654 42.656v767.968z" fill="#E6E9ED" p-id="1903"></path><path d="M981.334 74.69H42.668C19.2 74.69 0.012 93.878 0.012 117.346v127.998h1023.976v-128c0-23.468-19.186-42.654-42.654-42.654z" fill="#ED5564" p-id="1904"></path><path d="M192.008 10.692c-11.782 0-21.344 9.546-21.344 21.328v127.998c0 11.782 9.562 21.328 21.344 21.328s21.344-9.546 21.344-21.328v-128c0-11.78-9.562-21.326-21.344-21.326zM405.348 10.692c-11.782 0-21.344 9.546-21.344 21.328v127.998c0 11.782 9.562 21.328 21.344 21.328 11.78 0 21.31-9.546 21.31-21.328v-128c0-11.78-9.532-21.326-21.31-21.326zM618.656 10.692c-11.782 0-21.312 9.546-21.312 21.328v127.998c0 11.782 9.532 21.328 21.312 21.328 11.78 0 21.342-9.546 21.342-21.328v-128c0-11.78-9.562-21.326-21.342-21.326zM831.994 10.692c-11.782 0-21.344 9.546-21.344 21.328v127.998c0 11.782 9.562 21.328 21.344 21.328 11.78 0 21.342-9.546 21.342-21.328v-128c0-11.78-9.562-21.326-21.342-21.326z" fill="#E6E9ED" p-id="1905"></path><path d="M281.412 748.314c9.532-32.998 43.092-54.436 72.966-73.498l9.562-6.124c25.468-16.312 54.31-34.75 76.216-57.56 25.532-26.624 37.938-55.31 37.938-87.67 0-31.812-11.062-58.78-32.032-77.982-20.812-19.094-49.966-29.172-84.342-29.172-36.812 0-67.466 11.86-88.716 34.312-21.124 22.374-32.282 54.654-32.282 93.342v10.36h43.218v-5.75c0-28.11 5.624-50.266 16.688-65.828 12.624-17.78 32.654-26.78 59.53-26.78 44.75 0 73.686 26.686 73.686 68.03 0 50.014-43.998 78.888-82.78 104.388l-8.124 5.31c-57.03 37.5-106.246 69.812-110.934 148.624l-0.344 6.062h247.962v-40.124h-196.808a10.752 10.752 0 0 0-1.404 0.06zM669.308 537.242c-28.81 0-53.278 8.078-71.84 23.454l20.656-100.078h156.278v-40.17h-189.246l-37.5 196.184 38.562 1.376 1.782-2.688c17.876-26.562 41.592-38.938 74.654-38.938 50.28 0 85.436 36.624 85.436 89.06 0 51.876-35.718 89.498-84.936 89.498-47.716 0-78.874-29.686-81.342-77.498l-0.282-5.5h-43.094l0.124 5.876c1.624 70.31 50.532 115.748 124.592 115.748 36.248 0 69.248-13.312 92.904-37.438 23.406-23.876 36.282-56.81 36.282-92.748 0.002-73.124-51.748-126.138-123.03-126.138z" fill="#DA4453" p-id="1906"></path></svg>