<?xml version="1.0" standalone="no"?>
<!DOCTYPE svg PUBLIC "-//W3C//DTD SVG 1.1//EN" "http://www.w3.org/Graphics/SVG/1.1/DTD/svg11.dtd">
<svg t="1589711516985" class="icon" viewBox="0 0 1024 1024" version="1.1" xmlns="http://www.w3.org/2000/svg" p-id="15433" xmlns:xlink="http://www.w3.org/1999/xlink" width="1024" height="1024">
<defs>
  <style type="text/css"></style>
</defs>
<path d="M959.488 503.808L1024 133.12c0-43.008-34.816-77.824-77.824-77.824H77.824C34.816 55.296 0 90.112 0 133.12l64.512 370.688h894.976z" fill="#4DB0FF" p-id="15434"></path>
<path d="M64.512 520.192l-35.84 370.688c0 43.008 34.816 77.824 77.824 77.824h810.496c43.008 0 77.824-34.816 77.824-77.824l-35.84-370.688H64.512z" fill="#2A9AF3" p-id="15435"></path>
<path d="M64.512 512.512l-35.84 370.688c0 43.008 34.816 77.824 77.824 77.824h810.496c43.008 0 77.824-34.816 77.824-77.824l-35.84-370.688H64.512z" fill="#4DB0FF" p-id="15436"></path>
<path d="M959.488 512.512L1024 142.336c0-43.008-34.816-77.824-77.824-77.824H77.824C34.816 64.512 0 99.328 0 142.336l64.512 370.688h894.976z" fill="#2A9AF3" p-id="15437"></path>
<path d="M959.488 512.512H64.512v0.512l448 448h404.48c43.008 0 77.824-34.816 77.824-77.824l-35.328-370.688z" fill="#3BA3FF" p-id="15438"></path>
<path d="M338.432 489.472c9.728-0.512 19.968-1.024 30.72-2.048 10.752-0.512 20.992-2.048 30.72-4.608 9.728-2.56 18.432-6.656 26.112-11.776 7.68-5.632 14.336-13.824 19.456-24.576 5.12-10.752 8.192-22.528 8.192-34.816 0-12.8-1.024-23.04-4.096-31.744-4.608-12.288-11.776-21.504-20.992-28.16-9.216-6.656-18.432-11.264-28.16-13.312-9.216-2.048-20.48-3.072-33.792-2.56-13.312 1.024-24.576 3.072-32.256 6.656-8.192 3.584-16.384 9.728-24.576 18.944-8.704 9.216-13.824 18.944-16.384 30.208l-3.584 13.824H221.184c1.536-8.192 3.584-16.896 5.632-25.6 2.56-8.704 6.144-17.92 10.752-27.648 4.608-9.216 11.776-19.456 21.504-30.72 9.216-10.752 23.04-20.992 40.448-30.208 17.408-9.216 40.448-13.824 69.12-14.336 13.312 0 26.112 1.024 39.424 3.584 13.312 2.56 27.136 6.656 40.448 13.312 13.824 6.144 26.112 15.872 36.864 28.16 10.752 12.288 17.92 25.6 22.528 39.424 4.608 13.824 6.656 29.184 6.656 45.056 0 15.872-1.024 30.208-4.096 41.984-6.144 24.064-15.36 40.96-27.136 50.176l-24.576 22.528c9.216 7.68 17.408 14.336 24.576 20.48 7.168 5.632 13.824 13.312 20.992 22.016 7.168 8.704 12.8 19.456 17.408 31.744 4.608 12.8 6.656 28.16 6.656 46.592-0.512 23.04-4.608 43.52-12.8 61.44s-20.992 33.28-38.912 47.104c-17.92 13.312-37.376 22.016-58.368 25.6-20.992 3.584-40.448 5.12-57.856 4.096-24.064-1.024-44.544-4.608-61.44-11.776-16.896-6.656-30.72-15.36-41.984-25.6-11.264-10.24-19.968-22.016-26.624-34.816-6.656-12.8-10.24-23.552-11.264-32.256l-5.12-29.184H281.6c2.048 8.192 4.608 16.384 7.168 25.088 3.072 8.704 8.192 16.384 15.872 23.552 7.68 7.168 18.944 13.312 33.28 17.92 14.336 4.608 31.232 6.144 50.176 4.096 14.848-1.024 27.648-4.608 38.4-10.752 10.24-6.144 18.944-14.336 25.088-24.576 6.144-10.24 10.24-20.48 11.264-31.232 1.024-10.752 0-21.504-3.072-31.744-5.632-17.408-14.848-30.72-27.136-39.424-12.288-8.704-25.088-15.36-38.4-18.432-13.312-3.584-24.576-5.12-33.28-5.632l-22.528-1.536V489.472zM706.56 382.976l-55.296 44.544-38.4-53.76 120.32-95.232 42.496 22.528V778.24H706.56V382.976z" fill="#FFFFFF" p-id="15439"></path>
</svg>